<?xml version="1.0" encoding="UTF-8" standalone="no"?>
<!DOCTYPE svg PUBLIC "-//W3C//DTD SVG 1.1//EN"
 "http://www.w3.org/Graphics/SVG/1.1/DTD/svg11.dtd">
<!-- Generated by graphviz version 2.40.1 (20161225.0304)
 -->
<!-- Title: dependencies Pages: 1 -->
<svg width="504pt" height="211pt"
 viewBox="0.00 0.00 504.00 211.00" xmlns="http://www.w3.org/2000/svg" xmlns:xlink="http://www.w3.org/1999/xlink">
<g id="graph0" class="graph" transform="scale(1 1) rotate(0) translate(4 207)">
<title>dependencies</title>
<polygon fill="#ffffff" stroke="transparent" points="-4,4 -4,-207 500,-207 500,4 -4,4"/>
<text text-anchor="start" x="227.0091" y="-42.4" font-family="sans-serif" font-weight="bold" font-size="14.00" fill="#000000">Legend</text>
<polygon fill="#ffffb3" stroke="transparent" points="14,-10 14,-30 34,-30 34,-10 14,-10"/>
<text text-anchor="start" x="37.629" y="-15.4" font-family="sans-serif" font-size="14.00" fill="#000000"> &#160;Declarations</text>
<polygon fill="#8dd3c7" stroke="transparent" points="127,-10 127,-30 147,-30 147,-10 127,-10"/>
<text text-anchor="start" x="150.7251" y="-15.4" font-family="sans-serif" font-size="14.00" fill="#000000"> &#160;Module</text>
<polygon fill="#80b1d3" stroke="transparent" points="213,-10 213,-30 233,-30 233,-10 213,-10"/>
<text text-anchor="start" x="236.7812" y="-15.4" font-family="sans-serif" font-size="14.00" fill="#000000"> &#160;Bootstrap</text>
<polygon fill="#fdb462" stroke="transparent" points="310,-10 310,-30 330,-30 330,-10 310,-10"/>
<text text-anchor="start" x="333.6732" y="-15.4" font-family="sans-serif" font-size="14.00" fill="#000000"> &#160;Providers</text>
<polygon fill="#fb8072" stroke="transparent" points="406,-10 406,-30 426,-30 426,-10 406,-10"/>
<text text-anchor="start" x="429.7258" y="-15.4" font-family="sans-serif" font-size="14.00" fill="#000000"> &#160;Exports</text>
<g id="clust1" class="cluster">
<title>cluster_PublicPageModule</title>
<polygon fill="none" stroke="#000000" stroke-dasharray="1,5" points="53.5,-70 53.5,-195 442.5,-195 442.5,-70 53.5,-70"/>
</g>
<g id="clust2" class="cluster">
<title>cluster_PublicPageModule_declarations</title>
<polygon fill="none" stroke="#000000" points="61.5,-78 61.5,-130 434.5,-130 434.5,-78 61.5,-78"/>
</g>
<!-- LoginComponent -->
<g id="node1" class="node">
<title>LoginComponent</title>
<polygon fill="#ffffb3" stroke="#000000" points="426.7758,-122 312.2242,-122 312.2242,-86 426.7758,-86 426.7758,-122"/>
<text text-anchor="middle" x="369.5" y="-99.8" font-family="Times,serif" font-size="14.00" fill="#000000">LoginComponent</text>
</g>
<!-- PublicPageModule -->
<g id="node4" class="node">
<title>PublicPageModule</title>
<polygon fill="#8dd3c7" stroke="#000000" points="315.5409,-187 312.5409,-191 291.5409,-191 288.5409,-187 193.4591,-187 193.4591,-151 315.5409,-151 315.5409,-187"/>
<text text-anchor="middle" x="254.5" y="-164.8" font-family="Times,serif" font-size="14.00" fill="#000000">PublicPageModule</text>
</g>
<!-- LoginComponent&#45;&gt;PublicPageModule -->
<g id="edge1" class="edge">
<title>LoginComponent&#45;&gt;PublicPageModule</title>
<path fill="none" stroke="#000000" d="M312.0149,-104C306.583,-104 303.0537,-104 303.0537,-104 303.0537,-104 303.0537,-140.8939 303.0537,-140.8939"/>
<polygon fill="#000000" stroke="#000000" points="299.5537,-140.8938 303.0537,-150.8939 306.5537,-140.8939 299.5537,-140.8938"/>
</g>
<!-- PublicPage -->
<g id="node2" class="node">
<title>PublicPage</title>
<polygon fill="#ffffb3" stroke="#000000" points="293.9902,-122 215.0098,-122 215.0098,-86 293.9902,-86 293.9902,-122"/>
<text text-anchor="middle" x="254.5" y="-99.8" font-family="Times,serif" font-size="14.00" fill="#000000">PublicPage</text>
</g>
<!-- PublicPage&#45;&gt;PublicPageModule -->
<g id="edge2" class="edge">
<title>PublicPage&#45;&gt;PublicPageModule</title>
<path fill="none" stroke="#000000" d="M254.5,-122.1061C254.5,-122.1061 254.5,-140.991 254.5,-140.991"/>
<polygon fill="#000000" stroke="#000000" points="251.0001,-140.9909 254.5,-150.991 258.0001,-140.991 251.0001,-140.9909"/>
</g>
<!-- RegisterComponent -->
<g id="node3" class="node">
<title>RegisterComponent</title>
<polygon fill="#ffffb3" stroke="#000000" points="197.4846,-122 69.5154,-122 69.5154,-86 197.4846,-86 197.4846,-122"/>
<text text-anchor="middle" x="133.5" y="-99.8" font-family="Times,serif" font-size="14.00" fill="#000000">RegisterComponent</text>
</g>
<!-- RegisterComponent&#45;&gt;PublicPageModule -->
<g id="edge3" class="edge">
<title>RegisterComponent&#45;&gt;PublicPageModule</title>
<path fill="none" stroke="#000000" d="M197.6177,-104C202.8907,-104 206.2486,-104 206.2486,-104 206.2486,-104 206.2486,-140.8939 206.2486,-140.8939"/>
<polygon fill="#000000" stroke="#000000" points="202.7487,-140.8938 206.2486,-150.8939 209.7487,-140.8939 202.7487,-140.8938"/>
</g>
</g>
</svg>
