<?xml version="1.0" encoding="UTF-8" standalone="no"?>
<!DOCTYPE svg PUBLIC "-//W3C//DTD SVG 1.1//EN"
 "http://www.w3.org/Graphics/SVG/1.1/DTD/svg11.dtd">
<!-- Generated by graphviz version 2.40.1 (20161225.0304)
 -->
<!-- Title: dependencies Pages: 1 -->
<svg width="504pt" height="211pt"
 viewBox="0.00 0.00 504.00 211.00" xmlns="http://www.w3.org/2000/svg" xmlns:xlink="http://www.w3.org/1999/xlink">
<g id="graph0" class="graph" transform="scale(1 1) rotate(0) translate(4 207)">
<title>dependencies</title>
<polygon fill="#ffffff" stroke="transparent" points="-4,4 -4,-207 500,-207 500,4 -4,4"/>
<text text-anchor="start" x="227.0091" y="-42.4" font-family="sans-serif" font-weight="bold" font-size="14.00" fill="#000000">Legend</text>
<polygon fill="#ffffb3" stroke="transparent" points="14,-10 14,-30 34,-30 34,-10 14,-10"/>
<text text-anchor="start" x="37.629" y="-15.4" font-family="sans-serif" font-size="14.00" fill="#000000"> &#160;Declarations</text>
<polygon fill="#8dd3c7" stroke="transparent" points="127,-10 127,-30 147,-30 147,-10 127,-10"/>
<text text-anchor="start" x="150.7251" y="-15.4" font-family="sans-serif" font-size="14.00" fill="#000000"> &#160;Module</text>
<polygon fill="#80b1d3" stroke="transparent" points="213,-10 213,-30 233,-30 233,-10 213,-10"/>
<text text-anchor="start" x="236.7812" y="-15.4" font-family="sans-serif" font-size="14.00" fill="#000000"> &#160;Bootstrap</text>
<polygon fill="#fdb462" stroke="transparent" points="310,-10 310,-30 330,-30 330,-10 310,-10"/>
<text text-anchor="start" x="333.6732" y="-15.4" font-family="sans-serif" font-size="14.00" fill="#000000"> &#160;Providers</text>
<polygon fill="#fb8072" stroke="transparent" points="406,-10 406,-30 426,-30 426,-10 406,-10"/>
<text text-anchor="start" x="429.7258" y="-15.4" font-family="sans-serif" font-size="14.00" fill="#000000"> &#160;Exports</text>
<g id="clust1" class="cluster">
<title>cluster_StartPageModule</title>
<polygon fill="none" stroke="#000000" stroke-dasharray="1,5" points="58,-70 58,-195 438,-195 438,-70 58,-70"/>
</g>
<g id="clust2" class="cluster">
<title>cluster_StartPageModule_declarations</title>
<polygon fill="none" stroke="#000000" points="66,-78 66,-130 430,-130 430,-78 66,-78"/>
</g>
<!-- LoginComponent -->
<g id="node1" class="node">
<title>LoginComponent</title>
<polygon fill="#ffffb3" stroke="#000000" points="422.2758,-122 307.7242,-122 307.7242,-86 422.2758,-86 422.2758,-122"/>
<text text-anchor="middle" x="365" y="-99.8" font-family="Times,serif" font-size="14.00" fill="#000000">LoginComponent</text>
</g>
<!-- StartPageModule -->
<g id="node4" class="node">
<title>StartPageModule</title>
<polygon fill="#8dd3c7" stroke="#000000" points="282.7008,-187 279.7008,-191 258.7008,-191 255.7008,-187 169.2992,-187 169.2992,-151 282.7008,-151 282.7008,-187"/>
<text text-anchor="middle" x="226" y="-164.8" font-family="Times,serif" font-size="14.00" fill="#000000">StartPageModule</text>
</g>
<!-- LoginComponent&#45;&gt;StartPageModule -->
<g id="edge1" class="edge">
<title>LoginComponent&#45;&gt;StartPageModule</title>
<path fill="none" stroke="#000000" d="M365,-122.1061C365,-141.3391 365,-169 365,-169 365,-169 292.9377,-169 292.9377,-169"/>
<polygon fill="#000000" stroke="#000000" points="292.9377,-165.5001 282.9377,-169 292.9376,-172.5001 292.9377,-165.5001"/>
</g>
<!-- RegisterComponent -->
<g id="node2" class="node">
<title>RegisterComponent</title>
<polygon fill="#ffffb3" stroke="#000000" points="289.9846,-122 162.0154,-122 162.0154,-86 289.9846,-86 289.9846,-122"/>
<text text-anchor="middle" x="226" y="-99.8" font-family="Times,serif" font-size="14.00" fill="#000000">RegisterComponent</text>
</g>
<!-- RegisterComponent&#45;&gt;StartPageModule -->
<g id="edge2" class="edge">
<title>RegisterComponent&#45;&gt;StartPageModule</title>
<path fill="none" stroke="#000000" d="M226,-122.1061C226,-122.1061 226,-140.991 226,-140.991"/>
<polygon fill="#000000" stroke="#000000" points="222.5001,-140.9909 226,-150.991 229.5001,-140.991 222.5001,-140.9909"/>
</g>
<!-- StartPage -->
<g id="node3" class="node">
<title>StartPage</title>
<polygon fill="#ffffb3" stroke="#000000" points="143.6517,-122 74.3483,-122 74.3483,-86 143.6517,-86 143.6517,-122"/>
<text text-anchor="middle" x="109" y="-99.8" font-family="Times,serif" font-size="14.00" fill="#000000">StartPage</text>
</g>
<!-- StartPage&#45;&gt;StartPageModule -->
<g id="edge3" class="edge">
<title>StartPage&#45;&gt;StartPageModule</title>
<path fill="none" stroke="#000000" d="M109,-122.1061C109,-141.3391 109,-169 109,-169 109,-169 159.2136,-169 159.2136,-169"/>
<polygon fill="#000000" stroke="#000000" points="159.2137,-172.5001 169.2136,-169 159.2136,-165.5001 159.2137,-172.5001"/>
</g>
</g>
</svg>
