<?xml version="1.0" encoding="UTF-8" standalone="no"?>
<!DOCTYPE svg PUBLIC "-//W3C//DTD SVG 1.1//EN"
 "http://www.w3.org/Graphics/SVG/1.1/DTD/svg11.dtd">
<!-- Generated by graphviz version 2.40.1 (20161225.0304)
 -->
<!-- Title: dependencies Pages: 1 -->
<svg width="504pt" height="211pt"
 viewBox="0.00 0.00 504.00 211.00" xmlns="http://www.w3.org/2000/svg" xmlns:xlink="http://www.w3.org/1999/xlink">
<g id="graph0" class="graph" transform="scale(1 1) rotate(0) translate(4 207)">
<title>dependencies</title>
<polygon fill="#ffffff" stroke="transparent" points="-4,4 -4,-207 500,-207 500,4 -4,4"/>
<text text-anchor="start" x="227.0091" y="-42.4" font-family="sans-serif" font-weight="bold" font-size="14.00" fill="#000000">Legend</text>
<polygon fill="#ffffb3" stroke="transparent" points="14,-10 14,-30 34,-30 34,-10 14,-10"/>
<text text-anchor="start" x="37.629" y="-15.4" font-family="sans-serif" font-size="14.00" fill="#000000"> &#160;Declarations</text>
<polygon fill="#8dd3c7" stroke="transparent" points="127,-10 127,-30 147,-30 147,-10 127,-10"/>
<text text-anchor="start" x="150.7251" y="-15.4" font-family="sans-serif" font-size="14.00" fill="#000000"> &#160;Module</text>
<polygon fill="#80b1d3" stroke="transparent" points="213,-10 213,-30 233,-30 233,-10 213,-10"/>
<text text-anchor="start" x="236.7812" y="-15.4" font-family="sans-serif" font-size="14.00" fill="#000000"> &#160;Bootstrap</text>
<polygon fill="#fdb462" stroke="transparent" points="310,-10 310,-30 330,-30 330,-10 310,-10"/>
<text text-anchor="start" x="333.6732" y="-15.4" font-family="sans-serif" font-size="14.00" fill="#000000"> &#160;Providers</text>
<polygon fill="#fb8072" stroke="transparent" points="406,-10 406,-30 426,-30 426,-10 406,-10"/>
<text text-anchor="start" x="429.7258" y="-15.4" font-family="sans-serif" font-size="14.00" fill="#000000"> &#160;Exports</text>
<g id="clust1" class="cluster">
<title>cluster_DashboardPageModule</title>
<polygon fill="none" stroke="#000000" stroke-dasharray="1,5" points="109,-70 109,-195 387,-195 387,-70 109,-70"/>
</g>
<g id="clust2" class="cluster">
<title>cluster_DashboardPageModule_declarations</title>
<polygon fill="none" stroke="#000000" points="117,-78 117,-130 379,-130 379,-78 117,-78"/>
</g>
<!-- DashboardPage -->
<g id="node1" class="node">
<title>DashboardPage</title>
<polygon fill="#ffffb3" stroke="#000000" points="370.8529,-122 267.1471,-122 267.1471,-86 370.8529,-86 370.8529,-122"/>
<text text-anchor="middle" x="319" y="-99.8" font-family="Times,serif" font-size="14.00" fill="#000000">DashboardPage</text>
</g>
<!-- DashboardPageModule -->
<g id="node3" class="node">
<title>DashboardPageModule</title>
<polygon fill="#8dd3c7" stroke="#000000" points="321.9032,-187 318.9032,-191 297.9032,-191 294.9032,-187 174.0968,-187 174.0968,-151 321.9032,-151 321.9032,-187"/>
<text text-anchor="middle" x="248" y="-164.8" font-family="Times,serif" font-size="14.00" fill="#000000">DashboardPageModule</text>
</g>
<!-- DashboardPage&#45;&gt;DashboardPageModule -->
<g id="edge1" class="edge">
<title>DashboardPage&#45;&gt;DashboardPageModule</title>
<path fill="none" stroke="#000000" d="M294.3875,-122.1061C294.3875,-122.1061 294.3875,-140.991 294.3875,-140.991"/>
<polygon fill="#000000" stroke="#000000" points="290.8875,-140.9909 294.3875,-150.991 297.8875,-140.991 290.8875,-140.9909"/>
</g>
<!-- SwipeTabDirective -->
<g id="node2" class="node">
<title>SwipeTabDirective</title>
<polygon fill="#ffffb3" stroke="#000000" points="249.3445,-122 124.6555,-122 124.6555,-86 249.3445,-86 249.3445,-122"/>
<text text-anchor="middle" x="187" y="-99.8" font-family="Times,serif" font-size="14.00" fill="#000000">SwipeTabDirective</text>
</g>
<!-- SwipeTabDirective&#45;&gt;DashboardPageModule -->
<g id="edge2" class="edge">
<title>SwipeTabDirective&#45;&gt;DashboardPageModule</title>
<path fill="none" stroke="#000000" d="M211.8605,-122.1061C211.8605,-122.1061 211.8605,-140.991 211.8605,-140.991"/>
<polygon fill="#000000" stroke="#000000" points="208.3605,-140.9909 211.8605,-150.991 215.3605,-140.991 208.3605,-140.9909"/>
</g>
</g>
</svg>
