<?xml version="1.0" encoding="UTF-8" standalone="no"?>
<!DOCTYPE svg PUBLIC "-//W3C//DTD SVG 1.1//EN"
 "http://www.w3.org/Graphics/SVG/1.1/DTD/svg11.dtd">
<!-- Generated by graphviz version 2.40.1 (20161225.0304)
 -->
<!-- Title: dependencies Pages: 1 -->
<svg width="883pt" height="284pt"
 viewBox="0.00 0.00 883.00 284.00" xmlns="http://www.w3.org/2000/svg" xmlns:xlink="http://www.w3.org/1999/xlink">
<g id="graph0" class="graph" transform="scale(1 1) rotate(0) translate(4 280)">
<title>dependencies</title>
<polygon fill="#ffffff" stroke="transparent" points="-4,4 -4,-280 879,-280 879,4 -4,4"/>
<text text-anchor="start" x="416.5091" y="-42.4" font-family="sans-serif" font-weight="bold" font-size="14.00" fill="#000000">Legend</text>
<polygon fill="#ffffb3" stroke="transparent" points="203.5,-10 203.5,-30 223.5,-30 223.5,-10 203.5,-10"/>
<text text-anchor="start" x="227.129" y="-15.4" font-family="sans-serif" font-size="14.00" fill="#000000"> &#160;Declarations</text>
<polygon fill="#8dd3c7" stroke="transparent" points="316.5,-10 316.5,-30 336.5,-30 336.5,-10 316.5,-10"/>
<text text-anchor="start" x="340.2251" y="-15.4" font-family="sans-serif" font-size="14.00" fill="#000000"> &#160;Module</text>
<polygon fill="#80b1d3" stroke="transparent" points="402.5,-10 402.5,-30 422.5,-30 422.5,-10 402.5,-10"/>
<text text-anchor="start" x="426.2812" y="-15.4" font-family="sans-serif" font-size="14.00" fill="#000000"> &#160;Bootstrap</text>
<polygon fill="#fdb462" stroke="transparent" points="499.5,-10 499.5,-30 519.5,-30 519.5,-10 499.5,-10"/>
<text text-anchor="start" x="523.1732" y="-15.4" font-family="sans-serif" font-size="14.00" fill="#000000"> &#160;Providers</text>
<polygon fill="#fb8072" stroke="transparent" points="595.5,-10 595.5,-30 615.5,-30 615.5,-10 595.5,-10"/>
<text text-anchor="start" x="619.2258" y="-15.4" font-family="sans-serif" font-size="14.00" fill="#000000"> &#160;Exports</text>
<g id="clust1" class="cluster">
<title>cluster_AppModule</title>
<polygon fill="none" stroke="#000000" stroke-dasharray="1,5" points="8,-70 8,-268 298,-268 298,-70 8,-70"/>
</g>
<g id="clust2" class="cluster">
<title>cluster_AppModule_declarations</title>
<polygon fill="none" stroke="#000000" points="168,-78 168,-130 290,-130 290,-78 168,-78"/>
</g>
<g id="clust4" class="cluster">
<title>cluster_AppModule_imports</title>
<polygon fill="none" stroke="#000000" points="16,-78 16,-130 160,-130 160,-78 16,-78"/>
</g>
<g id="clust6" class="cluster">
<title>cluster_AppModule_bootstrap</title>
<polygon fill="none" stroke="#000000" points="96,-208 96,-260 220,-260 220,-208 96,-208"/>
</g>
<g id="clust14" class="cluster">
<title>cluster_DashboardPageModule</title>
<polygon fill="none" stroke="#000000" stroke-dasharray="1,5" points="306,-70 306,-195 470,-195 470,-70 306,-70"/>
</g>
<g id="clust15" class="cluster">
<title>cluster_DashboardPageModule_declarations</title>
<polygon fill="none" stroke="#000000" points="328,-78 328,-130 448,-130 448,-78 328,-78"/>
</g>
<g id="clust27" class="cluster">
<title>cluster_PublicPageModule</title>
<polygon fill="none" stroke="#000000" stroke-dasharray="1,5" points="478,-70 478,-195 867,-195 867,-70 478,-70"/>
</g>
<g id="clust28" class="cluster">
<title>cluster_PublicPageModule_declarations</title>
<polygon fill="none" stroke="#000000" points="486,-78 486,-130 859,-130 859,-78 486,-78"/>
</g>
<!-- AppComponent -->
<g id="node1" class="node">
<title>AppComponent</title>
<polygon fill="#ffffb3" stroke="#000000" points="281.9399,-122 176.0601,-122 176.0601,-86 281.9399,-86 281.9399,-122"/>
<text text-anchor="middle" x="229" y="-99.8" font-family="Times,serif" font-size="14.00" fill="#000000">AppComponent</text>
</g>
<!-- AppModule -->
<g id="node2" class="node">
<title>AppModule</title>
<polygon fill="#8dd3c7" stroke="#000000" points="199.6571,-187 196.6571,-191 175.6571,-191 172.6571,-187 116.3429,-187 116.3429,-151 199.6571,-151 199.6571,-187"/>
<text text-anchor="middle" x="158" y="-164.8" font-family="Times,serif" font-size="14.00" fill="#000000">AppModule</text>
</g>
<!-- AppComponent&#45;&gt;AppModule -->
<g id="edge1" class="edge">
<title>AppComponent&#45;&gt;AppModule</title>
<path fill="none" stroke="#000000" d="M188.0544,-122.1061C188.0544,-122.1061 188.0544,-140.991 188.0544,-140.991"/>
<polygon fill="#000000" stroke="#000000" points="184.5544,-140.9909 188.0544,-150.991 191.5544,-140.991 184.5544,-140.9909"/>
</g>
<!-- AppComponent  -->
<g id="node4" class="node">
<title>AppComponent </title>
<polygon fill="#80b1d3" stroke="#000000" points="212.439,-252 103.561,-252 103.561,-216 212.439,-216 212.439,-252"/>
<text text-anchor="middle" x="158" y="-229.8" font-family="Times,serif" font-size="14.00" fill="#000000">AppComponent </text>
</g>
<!-- AppModule&#45;&gt;AppComponent  -->
<g id="edge3" class="edge">
<title>AppModule&#45;&gt;AppComponent </title>
<path fill="none" stroke="#000000" stroke-dasharray="1,5" d="M158,-187.1061C158,-187.1061 158,-205.991 158,-205.991"/>
<polygon fill="#000000" stroke="#000000" points="154.5001,-205.9909 158,-215.991 161.5001,-205.991 154.5001,-205.9909"/>
</g>
<!-- AppRoutingModule -->
<g id="node3" class="node">
<title>AppRoutingModule</title>
<polygon fill="#8dd3c7" stroke="#000000" points="152.2744,-122 149.2744,-126 128.2744,-126 125.2744,-122 23.7256,-122 23.7256,-86 152.2744,-86 152.2744,-122"/>
<text text-anchor="middle" x="88" y="-99.8" font-family="Times,serif" font-size="14.00" fill="#000000">AppRoutingModule</text>
</g>
<!-- AppRoutingModule&#45;&gt;AppModule -->
<g id="edge2" class="edge">
<title>AppRoutingModule&#45;&gt;AppModule</title>
<path fill="none" stroke="#000000" d="M134.2795,-122.1061C134.2795,-122.1061 134.2795,-140.991 134.2795,-140.991"/>
<polygon fill="#000000" stroke="#000000" points="130.7795,-140.9909 134.2795,-150.991 137.7795,-140.991 130.7795,-140.9909"/>
</g>
<!-- DashboardPage -->
<g id="node5" class="node">
<title>DashboardPage</title>
<polygon fill="#ffffb3" stroke="#000000" points="439.8529,-122 336.1471,-122 336.1471,-86 439.8529,-86 439.8529,-122"/>
<text text-anchor="middle" x="388" y="-99.8" font-family="Times,serif" font-size="14.00" fill="#000000">DashboardPage</text>
</g>
<!-- DashboardPageModule -->
<g id="node6" class="node">
<title>DashboardPageModule</title>
<polygon fill="#8dd3c7" stroke="#000000" points="461.9032,-187 458.9032,-191 437.9032,-191 434.9032,-187 314.0968,-187 314.0968,-151 461.9032,-151 461.9032,-187"/>
<text text-anchor="middle" x="388" y="-164.8" font-family="Times,serif" font-size="14.00" fill="#000000">DashboardPageModule</text>
</g>
<!-- DashboardPage&#45;&gt;DashboardPageModule -->
<g id="edge4" class="edge">
<title>DashboardPage&#45;&gt;DashboardPageModule</title>
<path fill="none" stroke="#000000" d="M388,-122.1061C388,-122.1061 388,-140.991 388,-140.991"/>
<polygon fill="#000000" stroke="#000000" points="384.5001,-140.9909 388,-150.991 391.5001,-140.991 384.5001,-140.9909"/>
</g>
<!-- LoginComponent -->
<g id="node7" class="node">
<title>LoginComponent</title>
<polygon fill="#ffffb3" stroke="#000000" points="851.2758,-122 736.7242,-122 736.7242,-86 851.2758,-86 851.2758,-122"/>
<text text-anchor="middle" x="794" y="-99.8" font-family="Times,serif" font-size="14.00" fill="#000000">LoginComponent</text>
</g>
<!-- PublicPageModule -->
<g id="node10" class="node">
<title>PublicPageModule</title>
<polygon fill="#8dd3c7" stroke="#000000" points="740.0409,-187 737.0409,-191 716.0409,-191 713.0409,-187 617.9591,-187 617.9591,-151 740.0409,-151 740.0409,-187"/>
<text text-anchor="middle" x="679" y="-164.8" font-family="Times,serif" font-size="14.00" fill="#000000">PublicPageModule</text>
</g>
<!-- LoginComponent&#45;&gt;PublicPageModule -->
<g id="edge5" class="edge">
<title>LoginComponent&#45;&gt;PublicPageModule</title>
<path fill="none" stroke="#000000" d="M736.5149,-104C731.083,-104 727.5537,-104 727.5537,-104 727.5537,-104 727.5537,-140.8939 727.5537,-140.8939"/>
<polygon fill="#000000" stroke="#000000" points="724.0537,-140.8938 727.5537,-150.8939 731.0537,-140.8939 724.0537,-140.8938"/>
</g>
<!-- PublicPage -->
<g id="node8" class="node">
<title>PublicPage</title>
<polygon fill="#ffffb3" stroke="#000000" points="718.4902,-122 639.5098,-122 639.5098,-86 718.4902,-86 718.4902,-122"/>
<text text-anchor="middle" x="679" y="-99.8" font-family="Times,serif" font-size="14.00" fill="#000000">PublicPage</text>
</g>
<!-- PublicPage&#45;&gt;PublicPageModule -->
<g id="edge6" class="edge">
<title>PublicPage&#45;&gt;PublicPageModule</title>
<path fill="none" stroke="#000000" d="M679,-122.1061C679,-122.1061 679,-140.991 679,-140.991"/>
<polygon fill="#000000" stroke="#000000" points="675.5001,-140.9909 679,-150.991 682.5001,-140.991 675.5001,-140.9909"/>
</g>
<!-- RegisterComponent -->
<g id="node9" class="node">
<title>RegisterComponent</title>
<polygon fill="#ffffb3" stroke="#000000" points="621.9846,-122 494.0154,-122 494.0154,-86 621.9846,-86 621.9846,-122"/>
<text text-anchor="middle" x="558" y="-99.8" font-family="Times,serif" font-size="14.00" fill="#000000">RegisterComponent</text>
</g>
<!-- RegisterComponent&#45;&gt;PublicPageModule -->
<g id="edge7" class="edge">
<title>RegisterComponent&#45;&gt;PublicPageModule</title>
<path fill="none" stroke="#000000" d="M622.1177,-104C627.3907,-104 630.7486,-104 630.7486,-104 630.7486,-104 630.7486,-140.8939 630.7486,-140.8939"/>
<polygon fill="#000000" stroke="#000000" points="627.2487,-140.8938 630.7486,-150.8939 634.2487,-140.8939 627.2487,-140.8938"/>
</g>
</g>
</svg>
